# xmcd
#
# Track frame offsets:
#	150
#	37410
#	58335
#	73506
#	90064
#	129539
#	141492
#	160919
#	193018
#
# Disc length: 3737 seconds
#
# Revision: 1
# Processed by: cddbd v1.4PL0 Copyright (c) Steve Scherf et al.
# Submitted via: EasyCDDAExtractor 6.0.0.1
#
DISCID=850e9709
DTITLE=Booker T. and The M.G.'s - Melting Pot
DYEAR=1968
DGENRE=Rythm'n'Blues
TTITLE0=Melting Pot
TTITLE1=Back Home
TTITLE2=Chicken Pox
TTITLE3=Fuquawi
TTITLE4=Kinda Easy Like
TTITLE5=Hi Ride
TTITLE6=L.A. Jazz Song
TTITLE7=Sunny Monday
TTITLE8=Extra Data Track
EXTD=
EXTT0=
EXTT1=
EXTT2=
EXTT3=
EXTT4=
EXTT5=
EXTT6=
EXTT7=
EXTT8=
PLAYORDER=
